<?xml version="1.0" encoding="UTF-8"?>
<svg id="Layer_1" data-name="Layer 1" xmlns="http://www.w3.org/2000/svg" viewBox="0 0 1002.07 495.25">
  <defs>
    <style>
      .cls-1, .cls-2 {
        fill: #1b221a;
      }

      .cls-3 {
        letter-spacing: .26em;
      }

      .cls-4 {
        letter-spacing: .26em;
      }

      .cls-5 {
        letter-spacing: .26em;
      }

      .cls-6 {
        letter-spacing: .22em;
      }

      .cls-7 {
        letter-spacing: .25em;
      }

      .cls-2 {
        font-family: BrandonGrotesque-Regular, 'Brandon Grotesque';
        font-size: 25.89px;
      }
    </style>
  </defs>
  <g>
    <path class="cls-1" d="M499.42,427.7c-.77,2.33-2.68,5.81-5.42,5.39-1.92-.29-4.2-3.66-4.03-5.28l.85-7.98,7.55-35.91,10.91-47.42,6.14-26.68,2.47-10.66c-6.17.93-12.61,2.39-18.71,4.69l-20.23,7.64-10.09,2.02c-6.98,1.39-14.37,1.99-20.37-1.66-3.57-2.18-7.17-8.81-3.35-11.45l13.36-9.24,10.97-7.25,8.16-5.68,12.46-9.31,12.26-8.71,12.23-9.48,7.13-5.22,5.75-5.21c6.21-3.59,8.5-8.98,10.05-15.68l7.79-33.46,1.58-7.99c3.21-16.25,6.53-32.05,12.47-47.44,1.5-3.87,4.06-5.94,7.85-4.84,4.16,1.21,4.93,4.95,3.47,9l-3.22,8.94-3.54,11.28-11.91,57.29,5.25-3.75,6.39-6.02,5.89-5.46,9.88-10.07,17.86-18.57,5.57-6.58,8.45-9.91c3.13-3.68,5.34-7.95,7.93-12.06l7.72-12.29,4.37-11.91c3.09-8.43-.82-15.27-8.07-19.56-6.8-4.03-14.17-5.57-22.37-6.33-21.43-1.98-42.35,1.66-62.92,7.8l-16.14,5.77c-14.07,5.03-26.75,12.26-38.66,21.28l-15.39,11.66c-6.91,5.24-12.43,11.22-16.69,19.01-2.73,5-3.57,17.38-10.3,16.74-2.45-.23-5.42-9.45-1.98-16.99,3.5-7.67,8.32-14.53,14.71-20l19.22-16.45c9.07-7.77,19.51-13.24,30.36-18.43l11.08-5.3,20.06-7.74c13.76-5.31,27.86-7.45,42.62-8.57l14.01-1.07,25.72,2.8c7.44.81,13.67,6.14,18.89,10.66,9.61,8.3,11.62,21.62,6.85,32.78l-4.46,10.45-9.21,16.04-18.15,23.68-10.27,11.45-28.13,28.18-16.63,15.5-9.89,8.78-5.36,23.07-5.07,20.2c6.33,1.95,12.28,4.17,17.92,7.87l16.69,13.93c-.84-11.96,4.22-15.7,13.52-21.62,3.67-2.34,6.71-3.14,11.61-3.3l.38-14.8c-10.2,1.54-12.46,9.68-18.5,8.45-5.49-1.11-7.88-10.39-4.4-14.23,2.08-2.3,5.1-3.83,7.65-5.46,5.15-3.27,10.82-5,17.01-4.42,6.19.58,11.77,4.37,12.46,11.05.67,6.55.2,13.41-.36,20.15,2.04,4.68,1.82,8.78-2.39,12.9,5.98-1.88,9.58-3.15,15.92-2.95l1.49-24.07c.04-1.48,2.68-4.23,4.11-4.49,4.09.32,7.9,3.65,9.76,6.65l10.25-5.67c8.94-1.15,16.89,4.37,19.9,12.75,3.01,8.36,2.7,17.17,3.41,26.22l1.87,10.85c1.68,2.34,4.84,4.75,4.51,7.72-.19,1.7-3.66,3.17-5.15,3.02-7.21-.69-12.37-11.02-13.6-19.6l-3.24-22.58c-.12-.85-1.62-3.05-2.47-3.12s-2.15.76-3.27,1.36c-7.6,4.11-11.84,13.42-13.85,22-.2,5.25-3.79,8.27-8.39,8.58-3.01-2.68-5.13-5.56-6.02-9.05-3.24,2.35-6.96,4.18-10.81,5.73-8.23,3.31-16.58,7.05-25.62,7.01-3.85-.02-4.98.73-7.15,3.87s-8.14,3.54-11.65,2.11c-10.52-4.28-16.88-19.53-34.9-23.26l-5.29,21.28-3.48,14.58-12.23,52.9-5.39,20.92-6.03,18.26ZM522.45,284.56l3.5-14.61,3.18-12.7c-18.21,14.61-35.71,27.45-54.14,39.73,6.36-1.25,11.04-3.16,16.07-5.56,9.6-4.56,20.46-5.86,31.39-6.87ZM601.43,298.06c-5.88-2.44-10.51.54-14.41,4.48l14.41-4.48Z"/>
    <path class="cls-1" d="M743.65,310.46l-1.55-24.98-7.4,13.84-6.51,17.19c-1.54,2.93-7.55,1.58-9.74-.09-2.88-2.19-3.49-6.1-2.44-10.07l2.9-10.96,2.9-13.59,3.75-21.28,3.78-26.91,2.41-27.97.26-15.98c.05-2.82-1.69-7.28,1.24-9.26,3.58-2.41,8.94.69,10.09,4.97,2.41,8.96,1.77,18.27,1.01,27.7l-2.59,32.14-2.26,18.97c6.29-1.1,11.88,2.03,14.23,7.97,3.48,8.79,3.74,17.64,2.83,27.07l-.56,5.75,1.55,9.36c.26,1.58-2.65,4.47-3.74,5.6-5.43-.52-9.81-3.82-10.16-9.46Z"/>
    <path class="cls-1" d="M414.65,292.23l.92-19.97c.16-3.5-7.12-7.53-9.26-4.54-3.56,4.97-3.2,11.98-3.83,17.82l-2.53,20.6c-.17,1.56-.46,3.11-.69,4.64-.01,0-.03-.01-.04-.02,0,0-4.33,4.06-8.9,5.8-4.57,1.74-11.34.39-11.34.39-2.96-3.12-4.42-8.18-3.62-11.78.33-1.47,3.34-2.53,4.61-3.82l12.18-12.29c4.74-4.78,9.3-15.83,6.36-22.28-2.36-5.17-8.93-9.09-14.83-8.07-6.45,1.12-10.75,6.45-12.93,12.06l-4.22,10.84c-1.78,4.57-1.55,11.55-4.87,15.27-4.45,3.97-9.59,6.76-14.94,9.83,7.19-8.27,13.69-16.49,15.96-27.21,1.58-7.43-3.21-13.89-10.2-15.64-6.99-1.74-13.43.83-18.5,5.59l-12.5,11.72-7.03,6.75,6.72-48.91,1.25-12.16,3.49-36.04,3.26-18.82c.54-3.09-2.86-5.97-4.92-5.94-3.16.04-5.22,1.77-6.07,4.88-3.12,11.37-4.24,22.65-5.62,34.4l-3.81,32.41-1.22,7.93-8.36,49.23-15.54,7.11c1.72-10.76,2.97-20.81,1.27-30.12l-3.03-2.55c-2.85-2.4-7.94-3.73-10.42-.23l-4.39,6.18-5.51,8.55-9.89,15.27,6.83-28.23,7.13-25.81c.41-1.5.64-4.33-.24-5.22-2.75-2.77-8.09-4.42-10.61-3.46-1.12.43-2.16,2.42-3.17,3.67l-15.5,12.21-32.01,21.7-4.75,2.06,10.95-37.88,16.53-51.46,7.79-23.16,16.83-49.2,9.25-28.89c1.9-5.93,3.3-12.14,2.24-18.38-.61-3.59-6.05-6.19-9.24-4.2-2.32,1.44-3.4,5.11-4.63,7.6-4.48,9.11-7.52,18.3-11.17,27.67l-5.92,15.21-5.63,15.55-4.25,11.57-6.86,15.8-4.96,11.96-20.27,41.19-10.1,17.25c-8.76,14.96-20.4,27.46-31.95,40.32l-17.78,19.81-15.86,16.37-10.16,10.13c-1.99,1.99-8.6.21-11.11-1.47-10.88-7.29-6.96-18.32-11.8-20.7-1.58-.77-4.08-.36-5.15.45-4.24,3.2-3.5,5.74-2.52,9.77,2.63,10.79,8.34,20.51,19.05,23.85l-4.49,5.68c-.8,2.23,0,5.74,1.78,6.83,1.31.8,4.52.87,5.78-.3l10.16-9.46c19.59.45,39.7-5.06,57.02-14.36l16.16-8.68-5.49,24.38-2.65,21.5c-.99,8.01.81,15.44,3.55,22.77,2.95,7.87,6.99,14.1,13.39,19.65,2.62,2.27,5.33,4.52,8.5,6.15,10.87,5.59,21.93,9.32,34.17,8.6,12.3-.72,24.82-1.58,35.22-8.19l10.08-6.4c10.79-6.85,9.09-12.75,7.34-12.73l-2.38.02c-8.2,5.58-16.74,9.45-26.49,11.64-16.09,5.27-33.39,5.84-48.9-1.27-13.22-6.06-20.48-19.1-20.96-33.6-.34-10.52.3-20.53,2.64-30.54l6.93-29.64c.64-2.72,4.9-4.44,7.03-5.91l36.92-25.39,9.07-6.49-3.8,17.64-4.36,15.93-3.3,13.67c-1.47,6.07-2.81,12.42-.3,18.21,1.37,3.15,3.82,5.76,7.52,5.26,4.28-.58,8.25-3.6,10.61-7.39l16.56-26.58.5,12.72c.13,3.37,2.69,6.86,5.04,8.34,2.8,1.77,6.98,2.83,10.15,1.29l11.07-5.4c.88,3.73,3.34,7.27,6.18,7.85,3.38.7,6.1-1.16,8.85-4.14l2.13,5.6c.92,2.41,7.05,4.12,9.58,3.04,7.3-3.1,12.67-8.34,18.14-13.62-.53,4.93,5.27,10.86,9.66,8.32l11.32-6.55c3.64,9.63,8.08,14.86,17.69,15.41,6.21.36,11.63-2.21,18.92-6.5.58-.34,1.15-.71,1.72-1.09,1.17,2.39,2.53,4.84,5.93,4.79,6.12-.09,8.08-10.66,9.84-13.37,5.08-7.84,8.09-10.7,15.58-16.3l18.59-13.89c4.23-3.16,9.43-4.25,10.82-10.23-15.26-4.4-34.91,8.94-46.99,19.82ZM392.35,267.11c2.04,6.3-5.47,12.95-12.27,17.52,1.29-7.79,4.72-14.16,12.27-17.52ZM183.73,286.85l-15.78,8.89-22.75,11.06c-8,3.89-16.05,5.25-24.71,6.12l19.56-20.15,12.38-13.78c11.17-13.2,22.12-26.09,32-40.22l6.47-9.26c10.48-14.99,17.78-31.37,25.05-47.8l-6.44,22.05-2.44,7.83-9.85,29.64-13.51,45.62ZM342.22,288.13c-4.5,7.72-11.36,13.37-17.9,19.48-2.21,2.06-3.51,3.15-7.27,2.6l3.06-5.04c5.22-8.59,10.65-7.28,16.75-18.54,2.28-4.21,7.04-7.41,11.58-9.17l-6.22,10.67Z"/>
    <path class="cls-1" d="M511.17,422.64c.21-.16,1.56-.12,1.46.12l-.85,1.92c-.16.36-.95-.21-1.29-.51-.29-.26.36-1.29.68-1.52Z"/>
    <path class="cls-1" d="M928.81,307.78c-.71-1.44-4.39-2.77-5.99-2.48l-8.04,1.45,1.79-7.89c2.48-6.26,4.05-12.91,4.78-19.79-2.95-8.13-10.3-13.18-18.96-13.14-9.43.05-18.47,1.57-26.71,6.18l-4.91,4.45-4.52-7.06c-1.25-1.95-4.34-6.25-7.22-5.29-3.65,1.21-2.4,6.54-.62,8.84,3.69,4.78,4.8,10.35,6.01,15.9,1.08,4.94.4,7.86-3.81,10.88-3.97,2.85-9.14,5.72-14.85,4.58-4.42-.88-4.82-7.09-4.62-10.79l.48-9.05c.11-2.13-1.82-4.38-3.66-5.9-2.02-1.66-7.84-3.5-8.51.12l-1.86,10.14c-1.21,6.58-4.85,11.85-11.8,14.63l4.1-22.98c.49-2.77.03-7.45-1.36-10.18-1.26-2.46-5.39-3.09-8.22-2.83-4.97,12.72-9.06,28.28-7.73,41.39.66,6.56,6.71,11.11,12.8,9.83,6.19-1.3,10.64-4.1,14.89-9.55,7.46,12.33,21.65,14,32.39,6.36,3.38-2.41,7.7-3.95,10.39-7.29,8.41-10.41.42-19.16,2.83-19.91l2.75-.86c11.64-5.88,29.83-9.44,27.42-3.09l-3.18,8.38c-9.21-.37-18.52,3.64-22.3,12.79-1.13,2.73-1.3,7.97-.06,10.39,3.91,7.64,11.56,9.23,19.26,8.17,8.45-1.16,16.44-3.19,24.2-6.38,3.87-1.59,6.42-6.21,4.84-10.02ZM897.94,308.9c1.86-1.15,3.76-1.58,6.26-1.2-1.88,1.12-3.74,1.54-6.26,1.2Z"/>
    <path class="cls-1" d="M715.87,138.31c-.52-1-3.07-2.96-3.7-2.32l-2.4,2.41c-2.94,12.59-4.79,24.73-5.61,37.75l-4.08,68.58-1.2,21.48c-7.99,5.91-13.54,13.24-18.76,21.51-4.3,6.81-7.53,15.32-3.29,23.05,2.51,4.59,9.5,7.03,14.48,6.43l5.06-1.88c1.11,4.35,6.53,7.48,10.28,4.73,3.83-2.81,2.36-7.81,3.1-11.29,3.54-16.66,2.66-32.59,3.36-49.23l1.54-36.32,1.52-35.03.9-16.02.87-10.39c.63-7.52,1.25-17.15-2.07-23.46ZM688.43,303.48l9.03-16.01.67,12.42-9.71,3.58Z"/>
    <path class="cls-1" d="M799.99,295.71c.62-8.93,2.06-18.19-2.68-26.32-3.13-5.37-9.59-8.81-15.58-9.51l-6.43,1.12c-1.53.27-5.37.82-6,2.3-1.12,2.65-1.48,7.77.04,9.83,4.36,5.89,15.44,1.42,15.96,3.55l1.3,5.31c-5.81-1.58-10.8-1.96-15.9,2.2-3.56,2.9-7.28,6.86-9.29,11.37-2.02,4.55-2.42,11.51.15,15.78,1.59,2.64,4.52,5.03,6.76,7.14,10.44,2.24,21.09-.9,28.68-8.06l-.8-4.19c3.34-2.78,3.48-6.36,3.77-10.53ZM776.47,306.82c-.71.16-3-.76-3.31-1.41-1.62-3.43,3.95-10,10.09-12.28,3.54,4.21-.82,7.46,2.51,11.66l-9.29,2.03Z"/>
  </g>
  <text class="cls-2" transform="translate(332.69 375.21)"><tspan class="cls-3" x="0" y="0">REA</tspan><tspan class="cls-6" x="69.79" y="0">L</tspan><tspan class="cls-7" x="88.09" y="0">T</tspan><tspan class="cls-3" x="106.88" y="0">OR • </tspan><tspan class="cls-5" x="199.56" y="0">W</tspan><tspan class="cls-4" x="229.56" y="0">RITER • RURAL </tspan></text>
</svg>